<svg xmlns="http://www.w3.org/2000/svg" xmlns:xlink="http://www.w3.org/1999/xlink" preserveAspectRatio="xMidYMid" width="24" height="24" viewBox="0 0 24 24">
  <path d="M22.916,-0.003 C22.916,-0.003 1.083,-0.003 1.083,-0.003 C0.486,-0.003 -0.000,0.482 -0.000,1.079 C-0.000,1.079 -0.000,22.916 -0.000,22.916 C-0.000,23.511 0.486,23.998 1.083,23.998 C1.083,23.998 22.916,23.998 22.916,23.998 C23.513,23.998 24.000,23.511 24.000,22.916 C24.000,22.916 24.000,1.079 24.000,1.079 C24.000,0.482 23.513,-0.003 22.916,-0.003 ZM16.188,11.998 C16.188,14.310 14.313,16.185 12.000,16.185 C9.687,16.185 7.812,14.310 7.812,11.998 C7.812,9.684 9.687,7.809 12.000,7.809 C14.313,7.809 16.188,9.684 16.188,11.998 ZM21.000,20.998 C21.000,20.998 3.000,20.998 3.000,20.998 C3.000,20.998 3.000,10.497 3.000,10.497 C3.000,10.497 4.975,10.497 4.975,10.497 C4.872,10.982 4.812,11.483 4.812,11.998 C4.812,15.961 8.037,19.186 12.000,19.186 C15.964,19.186 19.188,15.961 19.188,11.998 C19.188,11.483 19.128,10.982 19.025,10.497 C19.025,10.497 21.000,10.497 21.000,10.497 C21.000,10.497 21.000,20.998 21.000,20.998 ZM21.000,7.497 C21.000,7.497 16.500,7.497 16.500,7.497 C16.500,7.497 16.500,2.998 16.500,2.998 C16.500,2.998 21.000,2.998 21.000,2.998 C21.000,2.998 21.000,7.497 21.000,7.497 Z" id="path-1" fill="#fff" fill-rule="evenodd"/>
</svg>
