<svg xmlns="http://www.w3.org/2000/svg" xmlns:xlink="http://www.w3.org/1999/xlink" preserveAspectRatio="xMidYMid" width="28" height="23" viewBox="0 0 28 23">
  <path d="M25.587,5.701 C25.369,15.623 19.028,22.527 9.408,22.959 C5.472,23.174 2.630,21.880 0.006,20.370 C2.849,20.801 6.566,19.723 8.533,17.996 C5.691,17.781 3.942,16.271 3.067,13.899 C3.942,14.114 4.816,13.899 5.472,13.899 C2.849,13.035 1.100,11.525 0.881,8.073 C1.537,8.505 2.411,8.721 3.286,8.721 C1.318,7.642 0.006,3.543 1.537,0.955 C4.379,3.975 7.877,6.563 13.562,6.995 C12.032,0.955 20.340,-2.281 23.620,1.818 C25.150,1.602 26.243,0.955 27.336,0.523 C26.899,2.033 26.025,2.897 24.932,3.759 C26.025,3.543 27.118,3.328 27.992,2.897 C27.774,3.975 26.681,4.837 25.587,5.701 Z" id="path-1" fill="#fff" fill-rule="evenodd"/>
</svg>
