<svg id="Layer_1" data-name="Layer 1" xmlns="http://www.w3.org/2000/svg" viewBox="0 0 31 20.99">
    <defs>
        <style>.cls-1{fill:#fff;}</style>
    </defs>
    <title>youtube</title>
    <path class="cls-1"
          d="M29.79,1.8C28.67.52,26.61,0,22.66,0H8.34C4.3,0,2.2.56,1.09,1.92S0,5.2,0,7.91v5.17C0,18.32,1.29,21,8.34,21H22.66c3.42,0,5.32-.46,6.55-1.59s1.79-3,1.79-6.32V7.91C31,5.06,30.92,3.09,29.79,1.8ZM19.9,11.21l-6.5,3.27a1.11,1.11,0,0,1-.46.11,1.07,1.07,0,0,1-.52-.14,1,1,0,0,1-.48-.83V7.11a1,1,0,0,1,.48-.83,1.06,1.06,0,0,1,1,0L19.9,9.5a1,1,0,0,1,.54.85A1,1,0,0,1,19.9,11.21Z"/>
</svg>